<?xml version="1.0" encoding="UTF-8"?>
<!DOCTYPE svg PUBLIC "-//W3C//DTD SVG 1.1//EN" "http://www.w3.org/Graphics/SVG/1.1/DTD/svg11.dtd">
<svg xmlns="http://www.w3.org/2000/svg" xmlns:xlink="http://www.w3.org/1999/xlink" version="1.1" width="241px" height="178px" viewBox="-0.5 -0.5 241 178"><defs/><g><ellipse cx="200" cy="57" rx="40" ry="40" fill="#999999" stroke="none" pointer-events="all"/><ellipse cx="40" cy="57" rx="40" ry="40" fill="#999999" stroke="none" pointer-events="all"/><ellipse cx="40" cy="57" rx="30" ry="30" fill="#ffffff" stroke="none" pointer-events="all"/><ellipse cx="200" cy="57" rx="30" ry="30" fill="#ffffff" stroke="none" pointer-events="all"/><ellipse cx="120" cy="97" rx="80" ry="80" fill="#8f8f8f" stroke="none" pointer-events="all"/><ellipse cx="95" cy="92" rx="35" ry="35" fill="#ffffff" stroke="none" pointer-events="all"/><ellipse cx="145" cy="92" rx="35" ry="35" fill="#ffffff" stroke="none" pointer-events="all"/><ellipse cx="118.75" cy="137" rx="51.25" ry="30" fill="#ffffff" stroke="none" pointer-events="all"/><path d="M 109.41 118.87 Q 128.16 118.87 128.16 143.87 Q 128.16 168.87 109.41 168.87 Z" fill="#999999" stroke="none" transform="rotate(89,118.79,143.87)" pointer-events="all"/><ellipse cx="121" cy="109.43" rx="10.865" ry="7.714999999999999" fill="#999999" stroke="none" pointer-events="all"/><path d="M 113.13 9.5 Q 143.13 9.5 143.13 33.25 Q 143.13 57 113.13 57 Q 128.13 33.25 113.13 9.5 Z" fill="#8f8f8f" stroke="none" transform="rotate(15,128.13,33.25)" pointer-events="all"/><path d="M 91.73 -11 Q 121.73 -11 121.73 24 Q 121.73 59 91.73 59 Q 106.73 24 91.73 -11 Z" fill="#8f8f8f" stroke="none" transform="rotate(-75,106.73,24)" pointer-events="all"/><path d="M 87.25 77 Q 97.16 77 97.16 87 Q 97.16 97 87.25 97 Z" fill="#999999" stroke="none" transform="rotate(-89,92.2,87)" pointer-events="all"/><path d="M 142.22 77 Q 152.13 77 152.13 87 Q 152.13 97 142.22 97 Z" fill="#999999" stroke="none" transform="rotate(-89,147.17,87)" pointer-events="all"/></g></svg>